<svg version="1.1" id="Capa_1" class="menu__logo" xmlns="http://www.w3.org/2000/svg" xmlns:xlink="http://www.w3.org/1999/xlink" x="0px" y="0px"
	 viewBox="0 0 110 80" enable-background="new 0 0 110 80" xml:space="preserve">
<g>
	<g>
		<polygon fill="#BDB9B7" points="42.5,15 36.5,15 16.5,31.1 16.5,39 27.2,39 42.5,16.3 		"/>
		<polygon fill="#BDB9B7" points="52.5,15 48.4,15 40.5,30.8 40.5,39 50.2,39 52.5,16.6 		"/>
		<polygon fill="#BDB9B7" points="11.8,53 6.5,53 6.5,57 11.5,57 11.5,59 6.5,59 6.5,63 12.5,63 12.5,65 4.5,65 4.5,51 12.5,51
			"/>
		<polygon fill="#BDB9B7" points="14.5,65 14.5,51 16.5,51 16.5,63 21.5,63 21.5,65 		"/>
	</g>
	<g>
		<g>
			<path fill="#BDB9B7" d="M29.5,64.8c-4.4,0-7.1-2.6-7.1-6.9c0-4.5,3.3-7.1,7.4-7.1c1.6,0,3,0.2,4,0.9l-0.1,3.1
				c-1.1-0.8-2.3-1.1-3.5-1.1c-2.7,0-4,2-4,4.2c0,2.4,1.4,4.1,3.9,4.1c1.3,0,2.4-0.4,3.3-1l1,2.4C33,64.4,31.2,64.8,29.5,64.8"/>
			<path fill="#BDB9B7" d="M46.8,63.2c-1.1,1.1-2.8,1.6-5,1.6c-2,0-3.7-0.4-4.8-1.4c-0.9-0.8-1.5-2.1-1.5-3.8V51h4v8.4
				c0,0.8,0,1.4,0.4,1.8c0.5,0.4,1.1,0.7,1.9,0.7c0.9,0,1.7-0.2,2.2-0.7c0.4-0.4,0.5-0.9,0.5-1.7V51h4v8.2
				C48.5,61,47.7,62.3,46.8,63.2"/>
			<polygon fill="#BDB9B7" points="49.5,65 49.5,51 53.5,51 53.5,62 58.5,62 58.5,65 			"/>
			<polygon fill="#BDB9B7" points="69.7,54 65.5,54 65.5,65 62.5,65 62.5,54 58.5,54 58.5,51 70.4,51 			"/>
			<rect x="72.5" y="51" fill="#BDB9B7" width="3" height="14"/>
			<path fill="#BDB9B7" d="M85.5,65h-2.8l-5.8-14h4l2.6,6.7c0.3,0.8,0.6,2.3,0.8,2.3h0c0.2,0,0.5-1.4,0.9-2.3l2.8-6.7h3.8L85.5,65z"
				/>
			<path fill="#BDB9B7" d="M98.3,53.7c-2.1,0-3.3,1.6-3.3,4.1c0,2.6,1.2,4.1,3.3,4.1c2.1,0,3.3-1.6,3.3-4.1
				C101.6,55.2,100.4,53.7,98.3,53.7 M103.2,63.2c-1.2,1-2.9,1.6-4.9,1.6c-1.9,0-3.6-0.6-4.8-1.6c-1.5-1.2-2.4-3.1-2.4-5.4
				c0-2.2,0.8-4.1,2.3-5.4c1.2-1,2.9-1.6,4.9-1.6c2.1,0,3.8,0.6,5,1.8c1.4,1.2,2.1,3.1,2.1,5.3C105.5,60.1,104.7,61.9,103.2,63.2"/>
			<polygon fill="#BDB9B7" points="69.5,15 75.4,15 95.5,31.1 95.5,39 84.7,39 69.5,16.3 			"/>
			<polygon fill="#BDB9B7" points="59.5,15 63.5,15 71.5,30.8 71.5,39 61.7,39 59.5,16.6 			"/>
		</g>
	</g>
</g>
</svg>
